<svg xmlns="http://www.w3.org/2000/svg" viewBox="0 0 960 410" font-family="Helvetica, Arial, sans-serif" font-size="13">
  <!-- SPDX-License-Identifier: GPL-3.0-or-later -->
  <!-- Generated by tools/wiring_diagrams/generate.py. Do not edit. -->
  <title>Power distribution for N boards</title>
  <rect x="0" y="0" width="960" height="410" fill="#ffffff"/>
  <defs>
    <marker id="arrow" viewBox="0 0 10 10" refX="9" refY="5" markerWidth="7" markerHeight="7" orient="auto-start-reverse">
      <path d="M0,0 L10,5 L0,10 z" fill="#333"/>
    </marker>
  </defs>
  <text x="470" y="30" text-anchor="middle" font-size="15" font-weight="bold" fill="#222">Fig 4. 5 V power distribution for N boards</text>
  <rect x="20" y="60" width="170" height="55" rx="6" fill="#fff4d6" stroke="#9a6b00" stroke-width="2"/>
  <text x="105" y="83" text-anchor="middle" font-size="13" font-weight="bold" fill="#222">USB-C input 1</text>
  <text x="105" y="102" text-anchor="middle" font-size="10" fill="#222">5.1 kΩ on CC1 and CC2</text>
  <rect x="20" y="135" width="170" height="55" rx="6" fill="#fffaea" stroke="#9a6b00" stroke-width="2" stroke-dasharray="6 4"/>
  <text x="105" y="158" text-anchor="middle" font-size="13" font-weight="bold" fill="#222">USB-C input 2</text>
  <text x="105" y="177" text-anchor="middle" font-size="10" fill="#222">optional</text>
  <polyline points="190,78 240,78" fill="none" stroke="#c45500" stroke-width="3"/>
  <polygon points="240,69 240,87 258,78" fill="#c45500"/>
  <line x1="260" y1="67" x2="260" y2="89" stroke="#c45500" stroke-width="3"/>
  <polyline points="262,78 300,78 300,115" fill="none" stroke="#c45500" stroke-width="3"/>
  <polyline points="190,153 240,153" fill="none" stroke="#c45500" stroke-width="3"/>
  <polygon points="240,144 240,162 258,153" fill="#c45500"/>
  <line x1="260" y1="142" x2="260" y2="164" stroke="#c45500" stroke-width="3"/>
  <polyline points="262,153 300,153 300,115" fill="none" stroke="#c45500" stroke-width="3"/>
  <text x="251" y="62" text-anchor="middle" font-size="10" fill="#222">SB560</text>
  <text x="251" y="177" text-anchor="middle" font-size="10" fill="#222">SB560</text>
  <circle cx="300" cy="115" r="3.5" fill="#c45500"/>
  <polyline points="300,115 330,115" fill="none" stroke="#c45500" stroke-width="3"/>
  <circle cx="330" cy="115" r="3.5" fill="#c45500"/>
  <circle cx="372" cy="115" r="3.5" fill="#c45500"/>
  <line x1="330" y1="115" x2="368" y2="98" stroke="#c45500" stroke-width="3"/>
  <text x="351" y="88" text-anchor="middle" font-size="10" fill="#222">power switch</text>
  <text x="351" y="135" text-anchor="middle" font-size="10" fill="#666">optional</text>
  <polyline points="372,115 420,115" fill="none" stroke="#c45500" stroke-width="3"/>
  <rect x="420" y="95" width="150" height="40" rx="6" fill="#ffe7cc" stroke="#c45500" stroke-width="2"/>
  <text x="495" y="120" text-anchor="middle" font-size="11" font-weight="bold" fill="#222">5 V lever connector</text>
  <polyline points="190,102 210,102 210,210" fill="none" stroke="#333" stroke-width="3"/>
  <polyline points="190,177 210,177 210,210" fill="none" stroke="#333" stroke-width="3"/>
  <polyline points="210,210 420,210" fill="none" stroke="#333" stroke-width="3"/>
  <rect x="420" y="190" width="150" height="40" rx="6" fill="#e6e6e6" stroke="#333" stroke-width="2"/>
  <text x="495" y="215" text-anchor="middle" font-size="11" font-weight="bold" fill="#222">GND lever connector</text>
  <polyline points="570,115 640,115 640,300" fill="none" stroke="#c45500" stroke-width="2.5" marker-end="url(#arrow)"/>
  <polyline points="570,210 620,210 620,300" fill="none" stroke="#333" stroke-width="2.5" marker-end="url(#arrow)"/>
  <rect x="608" y="250" width="24" height="16" fill="#fff" stroke="#555"/>
  <text x="630" y="315" text-anchor="middle" font-size="11" fill="#222">board 1</text>
  <polyline points="570,115 760,115 760,300" fill="none" stroke="#c45500" stroke-width="2.5" marker-end="url(#arrow)"/>
  <polyline points="570,210 740,210 740,300" fill="none" stroke="#333" stroke-width="2.5" marker-end="url(#arrow)"/>
  <rect x="728" y="250" width="24" height="16" fill="#fff" stroke="#555"/>
  <text x="750" y="315" text-anchor="middle" font-size="11" fill="#222">board 3</text>
  <polyline points="570,115 880,115 880,300" fill="none" stroke="#c45500" stroke-width="2.5" marker-end="url(#arrow)"/>
  <polyline points="570,210 860,210 860,300" fill="none" stroke="#333" stroke-width="2.5" marker-end="url(#arrow)"/>
  <rect x="848" y="250" width="24" height="16" fill="#fff" stroke="#555"/>
  <text x="870" y="315" text-anchor="middle" font-size="11" fill="#222">board N−1 (or N)</text>
  <text x="820" y="140" text-anchor="middle" font-size="28" fill="#c45500">…</text>
  <text x="700" y="280" text-anchor="middle" font-size="10" fill="#555">1000 µF</text>
  <text x="760" y="345" text-anchor="middle" font-size="11" fill="#555">One 0.5 mm² branch (5 V and GND) per pair of boards: ⌈N / 2⌉ branches,</text>
  <text x="760" y="362" text-anchor="middle" font-size="11" fill="#555">with a 1000 µF capacitor at the IN header of the odd board.</text>
  <polyline points="495,135 495,160 330,160 330,270" fill="none" stroke="#c45500" stroke-width="2" marker-end="url(#arrow)"/>
  <text x="250" y="290" text-anchor="start" font-size="11" fill="#222">ESP32-S3 "5V" pin</text>
  <text x="250" y="306" text-anchor="start" font-size="10" fill="#555">through a 1N5819 (Fig 2)</text>
  <polyline points="495,230 495,250 450,250 450,330" fill="none" stroke="#333" stroke-width="2" marker-end="url(#arrow)"/>
  <text x="450" y="345" text-anchor="middle" font-size="10" fill="#222">GND of the ESP32-S3,</text>
  <text x="450" y="358" text-anchor="middle" font-size="10" fill="#222">74AHCT125 and mic</text>
  <text x="20" y="390" text-anchor="start" font-size="11" fill="#555">Above 8 boards: connect both USB-C inputs, and use more lever connectors (or a terminal strip) for the extra branches. 1.0 mm² from the inputs to the lever connectors.</text>
</svg>
