<svg xmlns="http://www.w3.org/2000/svg" viewBox="0 0 960 495" font-family="Helvetica, Arial, sans-serif" font-size="13">
  <!-- SPDX-License-Identifier: GPL-3.0-or-later -->
  <!-- Generated by tools/wiring_diagrams/generate.py. Do not edit. -->
  <title>WS2812B power distribution</title>
  <rect x="0" y="0" width="960" height="495" fill="#ffffff"/>
  <defs>
    <marker id="arrow" viewBox="0 0 10 10" refX="9" refY="5" markerWidth="7" markerHeight="7" orient="auto-start-reverse">
      <path d="M0,0 L10,5 L0,10 z" fill="#333"/>
    </marker>
  </defs>
  <text x="480" y="30" text-anchor="middle" font-size="15" font-weight="bold" fill="#222">Fig 6. WS2812B power: 1 to 3 USB-C inputs, a branch to each panel</text>
  <rect x="20" y="60" width="170" height="50" rx="6" fill="#fff4d6" stroke="#9a6b00" stroke-width="2"/>
  <text x="105" y="82" text-anchor="middle" font-size="13" font-weight="bold" fill="#222">USB-C input 1</text>
  <text x="105" y="99" text-anchor="middle" font-size="10" fill="#222">5.1 kΩ on CC1 and CC2</text>
  <polyline points="190,78 240,78" fill="none" stroke="#c45500" stroke-width="3"/>
  <polygon points="240,69 240,87 258,78" fill="#c45500"/>
  <line x1="260" y1="67" x2="260" y2="89" stroke="#c45500" stroke-width="3"/>
  <text x="251" y="64" text-anchor="middle" font-size="10" fill="#222">SB560</text>
  <polyline points="262,78 300,78" fill="none" stroke="#c45500" stroke-width="3"/>
  <circle cx="300" cy="78" r="3.5" fill="#c45500"/>
  <polyline points="190,98 210,98" fill="none" stroke="#333" stroke-width="3"/>
  <circle cx="210" cy="98" r="3.5" fill="#333"/>
  <rect x="20" y="130" width="170" height="50" rx="6" fill="#fffaea" stroke="#9a6b00" stroke-width="2" stroke-dasharray="6 4"/>
  <text x="105" y="152" text-anchor="middle" font-size="13" font-weight="bold" fill="#222">USB-C input 2</text>
  <text x="105" y="169" text-anchor="middle" font-size="10" fill="#222">optional</text>
  <polyline points="190,148 240,148" fill="none" stroke="#c45500" stroke-width="3"/>
  <polygon points="240,139 240,157 258,148" fill="#c45500"/>
  <line x1="260" y1="137" x2="260" y2="159" stroke="#c45500" stroke-width="3"/>
  <text x="251" y="134" text-anchor="middle" font-size="10" fill="#222">SB560</text>
  <polyline points="262,148 300,148" fill="none" stroke="#c45500" stroke-width="3"/>
  <circle cx="300" cy="148" r="3.5" fill="#c45500"/>
  <polyline points="190,168 210,168" fill="none" stroke="#333" stroke-width="3"/>
  <circle cx="210" cy="168" r="3.5" fill="#333"/>
  <rect x="20" y="200" width="170" height="50" rx="6" fill="#fffaea" stroke="#9a6b00" stroke-width="2" stroke-dasharray="6 4"/>
  <text x="105" y="222" text-anchor="middle" font-size="13" font-weight="bold" fill="#222">USB-C input 3</text>
  <text x="105" y="239" text-anchor="middle" font-size="10" fill="#222">optional</text>
  <polyline points="190,218 240,218" fill="none" stroke="#c45500" stroke-width="3"/>
  <polygon points="240,209 240,227 258,218" fill="#c45500"/>
  <line x1="260" y1="207" x2="260" y2="229" stroke="#c45500" stroke-width="3"/>
  <text x="251" y="204" text-anchor="middle" font-size="10" fill="#222">SB560</text>
  <polyline points="262,218 300,218" fill="none" stroke="#c45500" stroke-width="3"/>
  <circle cx="300" cy="218" r="3.5" fill="#c45500"/>
  <polyline points="190,238 210,238" fill="none" stroke="#333" stroke-width="3"/>
  <circle cx="210" cy="238" r="3.5" fill="#333"/>
  <polyline points="300,78 300,218" fill="none" stroke="#c45500" stroke-width="3"/>
  <polyline points="300,148 330,148" fill="none" stroke="#c45500" stroke-width="3"/>
  <circle cx="330" cy="148" r="3.5" fill="#c45500"/>
  <circle cx="372" cy="148" r="3.5" fill="#c45500"/>
  <line x1="330" y1="148" x2="368" y2="131" stroke="#c45500" stroke-width="3"/>
  <text x="351" y="121" text-anchor="middle" font-size="10" fill="#222">power switch</text>
  <text x="351" y="168" text-anchor="middle" font-size="10" fill="#666">optional</text>
  <polyline points="372,148 420,148" fill="none" stroke="#c45500" stroke-width="3"/>
  <rect x="420" y="128" width="150" height="40" rx="6" fill="#ffe7cc" stroke="#c45500" stroke-width="2"/>
  <text x="495" y="153" text-anchor="middle" font-size="11" font-weight="bold" fill="#222">5 V lever connector</text>
  <polyline points="210,98 210,290 420,290" fill="none" stroke="#333" stroke-width="3"/>
  <rect x="420" y="270" width="150" height="40" rx="6" fill="#e6e6e6" stroke="#333" stroke-width="2"/>
  <text x="495" y="295" text-anchor="middle" font-size="11" font-weight="bold" fill="#222">GND lever connector</text>
  <polyline points="570,148 650,148 650,360" fill="none" stroke="#c45500" stroke-width="2.5" marker-end="url(#arrow)"/>
  <polyline points="570,290 630,290 630,360" fill="none" stroke="#333" stroke-width="2.5" marker-end="url(#arrow)"/>
  <rect x="618" y="320" width="24" height="16" fill="#fff" stroke="#555"/>
  <text x="640" y="378" text-anchor="middle" font-size="11" fill="#222">panel 1</text>
  <polyline points="570,148 760,148 760,360" fill="none" stroke="#c45500" stroke-width="2.5" marker-end="url(#arrow)"/>
  <polyline points="570,290 740,290 740,360" fill="none" stroke="#333" stroke-width="2.5" marker-end="url(#arrow)"/>
  <rect x="728" y="320" width="24" height="16" fill="#fff" stroke="#555"/>
  <text x="750" y="378" text-anchor="middle" font-size="11" fill="#222">panel 2</text>
  <polyline points="570,148 900,148 900,360" fill="none" stroke="#c45500" stroke-width="2.5" marker-end="url(#arrow)"/>
  <polyline points="570,290 880,290 880,360" fill="none" stroke="#333" stroke-width="2.5" marker-end="url(#arrow)"/>
  <rect x="868" y="320" width="24" height="16" fill="#fff" stroke="#555"/>
  <text x="890" y="378" text-anchor="middle" font-size="11" fill="#222">panel N</text>
  <text x="830" y="175" text-anchor="middle" font-size="28" fill="#c45500">…</text>
  <text x="710" y="345" text-anchor="middle" font-size="10" fill="#555">1000 µF</text>
  <polyline points="495,168 495,210 350,210 350,350" fill="none" stroke="#c45500" stroke-width="2" marker-end="url(#arrow)"/>
  <text x="250" y="368" text-anchor="start" font-size="11" fill="#222">ESP32-S3 "5V" pin</text>
  <text x="250" y="384" text-anchor="start" font-size="10" fill="#555">through a 1N5819 (Fig 2)</text>
  <text x="20" y="420" text-anchor="start" font-size="11" fill="#555">One 0.5 mm² branch (5 V and GND) to the power wires of each panel, with a 1000 µF capacitor at the panel.</text>
  <text x="20" y="437" text-anchor="start" font-size="11" fill="#555">Do not feed the power from one panel to the next through the 3-pin data connectors.</text>
  <text x="20" y="454" text-anchor="start" font-size="11" fill="#555">1.0 mm² from the inputs to the lever connectors (1.5 mm² with 3 inputs). Use more lever connectors for more panels.</text>
  <text x="20" y="471" text-anchor="start" font-size="11" fill="#555">The firmware limits the LED current (default 4,500 mA). Two 3 A inputs for 10 panels. Refer to Power and Wiring.</text>
</svg>
